{
	"asset":{
		"generator":"Khronos glTF Blender I/O v3.6.27",
		"version":"2.0"
	},
	"scene":0,
	"scenes":[
		{
			"name":"Scene",
			"nodes":[
				0,
				1
			]
		}
	],
	"nodes":[
		{
			"mesh":0,
			"name":"Circle.008",
			"rotation":[
				-0.13162808120250702,
				0,
				0,
				0.9912992715835571
			],
			"scale":[
				0.7884357571601868,
				0.7884357571601868,
				0.7884357571601868
			],
			"translation":[
				0.47294479608535767,
				1.4829479455947876,
				0.815182626247406
			]
		},
		{
			"mesh":1,
			"name":"Plane.001",
			"rotation":[
				-0.20659561455249786,
				0,
				0,
				0.978426456451416
			],
			"scale":[
				0.9917524456977844,
				0.991752564907074,
				0.991752564907074
			],
			"translation":[
				0.4769645929336548,
				1.8444936275482178,
				2.194591522216797
			]
		}
	],
	"materials":[
		{
			"doubleSided":true,
			"name":"White",
			"pbrMetallicRoughness":{
				"baseColorFactor":[
					0.7230470180511475,
					0.7230470180511475,
					0.7230470180511475,
					1
				],
				"metallicFactor":0
			}
		},
		{
			"doubleSided":true,
			"name":"Blue",
			"pbrMetallicRoughness":{
				"baseColorFactor":[
					0.8000000715255737,
					0.0600590780377388,
					0.03998440131545067,
					1
				],
				"metallicFactor":0
			}
		},
		{
			"doubleSided":true,
			"name":"Material.004",
			"pbrMetallicRoughness":{
				"baseColorFactor":[
					0.037410885095596313,
					0.037410885095596313,
					0.037410885095596313,
					1
				],
				"metallicFactor":0
			}
		}
	],
	"meshes":[
		{
			"name":"Circle.007",
			"primitives":[
				{
					"attributes":{
						"POSITION":0,
						"NORMAL":1,
						"TEXCOORD_0":2
					},
					"indices":3,
					"material":0
				},
				{
					"attributes":{
						"POSITION":4,
						"NORMAL":5,
						"TEXCOORD_0":6
					},
					"indices":7,
					"material":1
				},
				{
					"attributes":{
						"POSITION":8,
						"NORMAL":9,
						"TEXCOORD_0":10
					},
					"indices":11,
					"material":2
				}
			]
		},
		{
			"name":"Plane.001",
			"primitives":[
				{
					"attributes":{
						"POSITION":12,
						"NORMAL":13,
						"TEXCOORD_0":14
					},
					"indices":15,
					"material":0
				},
				{
					"attributes":{
						"POSITION":16,
						"NORMAL":17,
						"TEXCOORD_0":18
					},
					"indices":19,
					"material":1
				}
			]
		}
	],
	"accessors":[
		{
			"bufferView":0,
			"componentType":5126,
			"count":578,
			"max":[
				5.225915431976318,
				2.3892343044281006,
				2.2438392639160156
			],
			"min":[
				-5.225915431976318,
				-1.440445065498352,
				-6.442065238952637
			],
			"type":"VEC3"
		},
		{
			"bufferView":1,
			"componentType":5126,
			"count":578,
			"type":"VEC3"
		},
		{
			"bufferView":2,
			"componentType":5126,
			"count":578,
			"type":"VEC2"
		},
		{
			"bufferView":3,
			"componentType":5123,
			"count":1032,
			"type":"SCALAR"
		},
		{
			"bufferView":4,
			"componentType":5126,
			"count":514,
			"max":[
				4.6527838706970215,
				2.666771173477173,
				1.7877554893493652
			],
			"min":[
				-4.6527838706970215,
				-1.3455759286880493,
				-6.524102210998535
			],
			"type":"VEC3"
		},
		{
			"bufferView":5,
			"componentType":5126,
			"count":514,
			"type":"VEC3"
		},
		{
			"bufferView":6,
			"componentType":5126,
			"count":514,
			"type":"VEC2"
		},
		{
			"bufferView":7,
			"componentType":5123,
			"count":822,
			"type":"SCALAR"
		},
		{
			"bufferView":8,
			"componentType":5126,
			"count":708,
			"max":[
				1.631498098373413,
				1.0235376358032227,
				0.6640692949295044
			],
			"min":[
				-1.631498098373413,
				-1.6902997493743896,
				-5.9958343505859375
			],
			"type":"VEC3"
		},
		{
			"bufferView":9,
			"componentType":5126,
			"count":708,
			"type":"VEC3"
		},
		{
			"bufferView":10,
			"componentType":5126,
			"count":708,
			"type":"VEC2"
		},
		{
			"bufferView":11,
			"componentType":5123,
			"count":1206,
			"type":"SCALAR"
		},
		{
			"bufferView":12,
			"componentType":5126,
			"count":228,
			"max":[
				1.0041639804840088,
				1.1261937618255615,
				0.03364858031272888
			],
			"min":[
				-1.0041640996932983,
				-0.6492487788200378,
				-1.0460258437205994e-07
			],
			"type":"VEC3"
		},
		{
			"bufferView":13,
			"componentType":5126,
			"count":228,
			"type":"VEC3"
		},
		{
			"bufferView":14,
			"componentType":5126,
			"count":228,
			"type":"VEC2"
		},
		{
			"bufferView":15,
			"componentType":5123,
			"count":396,
			"type":"SCALAR"
		},
		{
			"bufferView":16,
			"componentType":5126,
			"count":96,
			"max":[
				0.9415650367736816,
				1.0026695728302002,
				0.03364858031272888
			],
			"min":[
				-0.9415651559829712,
				-0.6281690001487732,
				-9.065561812349188e-08
			],
			"type":"VEC3"
		},
		{
			"bufferView":17,
			"componentType":5126,
			"count":96,
			"type":"VEC3"
		},
		{
			"bufferView":18,
			"componentType":5126,
			"count":96,
			"type":"VEC2"
		},
		{
			"bufferView":19,
			"componentType":5123,
			"count":144,
			"type":"SCALAR"
		}
	],
	"bufferViews":[
		{
			"buffer":0,
			"byteLength":6936,
			"byteOffset":0,
			"target":34962
		},
		{
			"buffer":0,
			"byteLength":6936,
			"byteOffset":6936,
			"target":34962
		},
		{
			"buffer":0,
			"byteLength":4624,
			"byteOffset":13872,
			"target":34962
		},
		{
			"buffer":0,
			"byteLength":2064,
			"byteOffset":18496,
			"target":34963
		},
		{
			"buffer":0,
			"byteLength":6168,
			"byteOffset":20560,
			"target":34962
		},
		{
			"buffer":0,
			"byteLength":6168,
			"byteOffset":26728,
			"target":34962
		},
		{
			"buffer":0,
			"byteLength":4112,
			"byteOffset":32896,
			"target":34962
		},
		{
			"buffer":0,
			"byteLength":1644,
			"byteOffset":37008,
			"target":34963
		},
		{
			"buffer":0,
			"byteLength":8496,
			"byteOffset":38652,
			"target":34962
		},
		{
			"buffer":0,
			"byteLength":8496,
			"byteOffset":47148,
			"target":34962
		},
		{
			"buffer":0,
			"byteLength":5664,
			"byteOffset":55644,
			"target":34962
		},
		{
			"buffer":0,
			"byteLength":2412,
			"byteOffset":61308,
			"target":34963
		},
		{
			"buffer":0,
			"byteLength":2736,
			"byteOffset":63720,
			"target":34962
		},
		{
			"buffer":0,
			"byteLength":2736,
			"byteOffset":66456,
			"target":34962
		},
		{
			"buffer":0,
			"byteLength":1824,
			"byteOffset":69192,
			"target":34962
		},
		{
			"buffer":0,
			"byteLength":792,
			"byteOffset":71016,
			"target":34963
		},
		{
			"buffer":0,
			"byteLength":1152,
			"byteOffset":71808,
			"target":34962
		},
		{
			"buffer":0,
			"byteLength":1152,
			"byteOffset":72960,
			"target":34962
		},
		{
			"buffer":0,
			"byteLength":768,
			"byteOffset":74112,
			"target":34962
		},
		{
			"buffer":0,
			"byteLength":288,
			"byteOffset":74880,
			"target":34963
		}
	],
	"buffers":[
		{
			"byteLength":75168,
			"uri":"plane.bin"
		}
	]
}
